<svg width="104" height="104" viewBox="0 0 104 104" fill="none" xmlns="http://www.w3.org/2000/svg">
<g filter="url(#filter0_d_178_1)">
<circle cx="52" cy="48" r="13" fill="#FEFEFE"/>
</g>
<path d="M53.1916 44.5333C54.1489 44.5333 54.925 43.7573 54.925 42.8C54.925 41.8427 54.1489 41.0667 53.1916 41.0667C52.2344 41.0667 51.4583 41.8427 51.4583 42.8C51.4583 43.7573 52.2344 44.5333 53.1916 44.5333Z" fill="#2C2C2C"/>
<path d="M54.964 51.5663C54.9161 51.5341 54.8623 51.5118 54.8057 51.5007C54.7491 51.4896 54.6908 51.4899 54.6343 51.5016C54.5778 51.5133 54.5242 51.5362 54.4766 51.5689C54.4291 51.6016 54.3885 51.6434 54.3574 51.692C53.9385 52.3124 53.4253 52.8636 52.8364 53.3257C52.6934 53.434 52.1604 53.8457 51.935 53.759C51.779 53.7113 51.87 53.4037 51.9004 53.2737L52.13 52.5933C52.2254 52.316 53.885 47.3933 54.067 46.83C54.3357 46.0067 54.2187 45.1963 52.9924 45.3913C52.6587 45.426 49.2744 45.8637 49.2137 45.868C49.1568 45.8717 49.1012 45.8866 49.05 45.9118C48.9989 45.937 48.9532 45.972 48.9155 46.0148C48.8779 46.0577 48.8491 46.1075 48.8307 46.1615C48.8124 46.2155 48.8048 46.2726 48.8085 46.3295C48.8122 46.3864 48.8271 46.442 48.8523 46.4932C48.8775 46.5444 48.9125 46.5901 48.9554 46.6277C48.9982 46.6653 49.0481 46.6941 49.1021 46.7125C49.156 46.7308 49.2131 46.7384 49.27 46.7347C49.27 46.7347 50.57 46.5657 50.713 46.5527C50.7863 46.5455 50.86 46.5597 50.9254 46.5936C50.9907 46.6274 51.0449 46.6794 51.0814 46.7433C51.1599 46.9861 51.1491 47.2489 51.051 47.4843C50.9384 47.9177 49.1574 52.9357 49.101 53.226C49.0406 53.469 49.0574 53.7247 49.149 53.9577C49.2407 54.1907 49.4026 54.3893 49.6124 54.526C50.0061 54.7884 50.4748 54.9147 50.947 54.8857C51.4062 54.8801 51.8603 54.789 52.286 54.617C53.365 54.1837 54.4917 53.031 55.0854 52.1253C55.1365 52.0333 55.1524 51.9258 55.13 51.823C55.1077 51.7201 55.0487 51.6289 54.964 51.5663Z" fill="#2C2C2C"/>
<defs>
<filter id="filter0_d_178_1" x="0" y="0" width="104" height="104" filterUnits="userSpaceOnUse" color-interpolation-filters="sRGB">
<feFlood flood-opacity="0" result="BackgroundImageFix"/>
<feColorMatrix in="SourceAlpha" type="matrix" values="0 0 0 0 0 0 0 0 0 0 0 0 0 0 0 0 0 0 127 0" result="hardAlpha"/>
<feMorphology radius="9" operator="dilate" in="SourceAlpha" result="effect1_dropShadow_178_1"/>
<feOffset dy="4"/>
<feGaussianBlur stdDeviation="15"/>
<feColorMatrix type="matrix" values="0 0 0 0 0.996078 0 0 0 0 0.996078 0 0 0 0 0.996078 0 0 0 0.24 0"/>
<feBlend mode="normal" in2="BackgroundImageFix" result="effect1_dropShadow_178_1"/>
<feBlend mode="normal" in="SourceGraphic" in2="effect1_dropShadow_178_1" result="shape"/>
</filter>
</defs>
</svg>
